<?xml version="1.0" standalone="no"?><!DOCTYPE svg PUBLIC "-//W3C//DTD SVG 1.1//EN" "http://www.w3.org/Graphics/SVG/1.1/DTD/svg11.dtd"><svg t="1646531232458" class="icon" viewBox="0 0 1024 1024" version="1.1" xmlns="http://www.w3.org/2000/svg" p-id="2645" xmlns:xlink="http://www.w3.org/1999/xlink" width="200" height="200"><defs><style type="text/css"></style></defs><path d="M831.473125 440.743096c-7.210215 3.451612-14.620999 6.537903-22.106484 9.358135-30.237675 11.391445-61.390185 19.61064-93.073792 25.737174-18.500353 3.577478-37.116339 6.632047-55.751768 9.44-12.567223 1.89414-25.238824 3.175319-37.902238 4.322445-15.907295 1.438769-31.839149 2.783393-47.789423 3.572362-17.622356 0.870834-35.275411 1.429559-52.91721 1.465374-21.310352 0.044002-42.636053-0.258896-63.929008-1.066285-17.34197-0.657986-34.68087-1.908466-51.954279-3.570315-18.911722-1.818415-37.817304-3.935636-56.603159-6.754844-46.303582-6.948249-91.882664-17.039072-135.845944-33.534767-7.036253-2.639107-13.974269-5.594415-20.772093-8.79634-7.494695-3.53143-11.132548-11.82942-9.094122-19.614733 2.110057-8.061606 9.185196-13.447267 17.46886-13.046131 2.089591 0.101307 4.297886 0.594541 6.193049 1.468444 20.002566 9.219989 40.885176 15.919575 62.08808 21.651113 11.053754 2.989077 22.23542 5.507434 33.360805 8.225335 0.394996 0.097214 0.813528 0.099261 1.468444 0.173962 0-1.057075 0-1.879813 0-2.703575 0-42.364877-0.013303-84.726683 0.00921-127.09156 0.00614-11.816117 8.475022-22.594601 19.518542-24.692379 7.461949-1.417279 14.980179-2.540869 22.472827-3.789303 15.329127-2.552126 30.658254-5.098111 45.987381-7.649214 15.462157-2.573615 30.924313-5.151323 46.38954-7.726985 15.32708-2.554172 30.682813-4.948709 45.973054-7.704472 18.243503-3.288906 36.408211-3.28686 54.653761-0.005117 15.357779 2.761903 30.78412 5.163603 46.178739 7.724938 15.32708 2.550079 30.656207 5.100158 45.983287 7.653307 15.394618 2.565429 30.791284 5.135974 46.185902 7.705496 7.492648 1.25048 15.009855 2.38021 22.473851 3.786233 10.787694 2.032286 19.523659 12.867052 19.525706 24.052812 0.016373 42.570561 0.007163 85.143169 0.007163 127.71373 0 0.824785 0 1.64957 0 2.820232 2.217505-0.476861 4.264117-0.892323 6.29845-1.356904 28.559453-6.53995 56.719816-14.376429 83.805708-25.724895 3.794419-1.591241 7.623631-3.441379 11.619642-4.14746 8.354272-1.477654 16.151865 3.717671 18.647709 11.715833C842.523809 428.305833 839.084477 437.09808 831.473125 440.743096L831.473125 440.743096zM719.572546 671.693072c-0.055259 13.780865-6.382361 25.054629-18.234293 32.117488-56.927547 33.921577-113.970728 67.651796-171.137729 101.169167-11.80486 6.921643-24.62177 6.910387-36.424584-0.01228-57.163931-33.519418-114.208135-67.249637-171.139775-101.164051-11.716856-6.979972-18.131963-18.140149-18.197454-31.720446-0.288572-59.873646-0.125867-119.748315-0.12382-179.624007 0-0.454348 0.039909-0.906649 0.062422-1.362021 0.085958-0.01228 0.171915-0.024559 0.258896-0.033769 0.51984 2.043542 1.020236 4.097318 1.563612 6.135744 4.287653 16.118096 13.56597 29.059849 25.787316 40.030715 10.075473 9.042957 21.467941 15.892969 34.871205 18.667152 12.641925 2.616594 25.368784 4.812609 38.059827 7.18361 12.895705 2.408863 25.755594 5.021364 38.698371 7.14677 13.177114 2.164293 24.717961-1.787716 34.042327-11.212366 6.999414-7.077186 13.343913-14.800078 20.082384-22.140253 8.518001-9.278317 20.026102-9.251711 28.573779 0.060375 6.506181 7.089465 12.7023 14.46341 19.358907 21.402449 9.970072 10.395768 22.26305 14.255679 36.436864 11.653411 20.369933-3.739161 40.72247-7.589862 61.067844-11.469216 8.595772-1.64036 17.418718-2.506077 25.471115-6.259564 23.690562-11.048637 40.521902-28.392654 48.738028-53.54859 0.406253-1.243317 0.682545-2.529613 1.00898-3.799536 0.324388-1.25048 0.633427-2.503007 1.277086-3.729951 0 0.711198 0 1.419326 0 2.130524C719.671807 552.773635 719.806883 612.233865 719.572546 671.693072L719.572546 671.693072zM926.574087 487.168452c-1.378393-13.471826-2.394537-26.996864-4.356214-40.383756-3.417843-23.330358-9.216919-46.128597-16.833387-68.457138-3.717671-10.898211-7.861038-21.556968-12.388145-32.000831-15.832594-36.510542-36.617989-70.234621-62.5895-100.984972-18.429745-21.822005-38.409798-41.267892-59.870576-58.44204-42.478464-33.992185-90.856287-58.914808-145.217383-74.574463-20.067035-5.780657-40.470737-10.050913-61.23055-12.340049-12.08627-1.332345-24.242124-2.020006-36.366256-3.00852-0.677429-0.055259-1.344624-0.210801-2.01489-0.319272-9.140171 0-18.277272 0-27.415396 0-3.918239 0.265036-7.848759 0.415462-11.754718 0.816598-13.264095 1.362021-26.580379 2.376117-39.762609 4.322445-25.112957 3.708462-49.618071 10.069333-73.540923 18.585287-43.698245 15.554254-83.7044 37.625946-119.747291 66.517973-2.740414 2.197038-5.464455 4.422729-8.15882 6.698562-47.988967 40.535205-84.71645 88.419795-110.171192 143.599536-9.061376 19.641339-16.727986 40.185234-22.917966 61.682851-5.759167 19.999496-10.003841 40.342824-12.273535 61.036122-1.325182 12.08627-2.018983 24.242124-3.00852 36.366256-0.055259 0.679475-0.210801 1.351787-0.319272 2.029216 0 9.138124 0 18.275225 0 27.415396 0.25685 3.714602 0.408299 7.442506 0.787946 11.144828 1.378393 13.469779 2.39556 26.996864 4.356214 40.383756 3.417843 23.327288 9.217942 46.128597 16.832364 68.454068 4.823865 14.144138 10.350742 27.89635 16.542768 41.271986 15.258519 32.963763 34.675754 63.586201 58.433854 91.714841 28.885887 34.201963 61.531402 62.649875 97.862865 85.418438 32.730449 20.512173 68.446905 36.426631 107.225093 47.599088 20.070104 5.780657 40.470737 10.051937 61.232596 12.340049 12.08627 1.332345 24.242124 2.020006 36.366256 3.00852 0.674359 0.055259 1.342578 0.210801 2.01489 0.319272 9.138124 0 18.275225 0 27.415396 0 3.710508-0.25685 7.432273-0.409322 11.130502-0.788969 13.471826-1.378393 26.996864-2.394537 40.383756-4.356214 23.330358-3.417843 46.128597-9.214872 68.457138-16.829294 30.80868-10.509355 59.815317-24.24417 86.938048-41.293475 16.011672-10.066263 31.369452-21.281699 46.050826-33.679054 50.680263-42.797735 88.790232-93.806479 114.328885-152.958694 7.222495-16.73208 13.496385-34.081213 18.695804-52.124148 5.473665-19.000749 9.652847-38.299281 11.907191-57.945737 1.509377-13.174044 2.312672-26.433022 3.441379-39.653115 0.060375-0.679475 0.212848-1.351787 0.321318-2.02717 0-9.140171 0-18.277272 0-27.415396C927.106206 494.598678 926.953733 490.871797 926.574087 487.168452L926.574087 487.168452z" p-id="2646" fill="#515151"></path></svg>